<svg xmlns="http://www.w3.org/2000/svg" width="1180" height="825" viewBox="0 0 1180 825" role="img" aria-label="Engineer dashboard">
  <style>
    .bg { fill: #0d1117; }
    .card { fill: #300a24; stroke: #2b0b22; stroke-width: 1; }
    .titlebar { fill: #3a0f2d; }
    .title { fill: #f2f2f2; font: 500 12px 'Ubuntu', 'Ubuntu Sans', Arial, sans-serif; }
    .line { fill: #eeeeec; font: 14px 'Ubuntu Mono', 'DejaVu Sans Mono', monospace; white-space: pre; }
    .prompt-user { fill: #8ae234; font: 14px 'Ubuntu Mono', 'DejaVu Sans Mono', monospace; white-space: pre; }
    .prompt-path { fill: #729fcf; font: 14px 'Ubuntu Mono', 'DejaVu Sans Mono', monospace; white-space: pre; }
    .prompt-symbol { fill: #eeeeec; font: 14px 'Ubuntu Mono', 'DejaVu Sans Mono', monospace; white-space: pre; }
    .prompt-cmd { fill: #eeeeec; font: 14px 'Ubuntu Mono', 'DejaVu Sans Mono', monospace; white-space: pre; }
    .cursor-block { fill: #eeeeec; }
    .win-btn { fill: #5e3a52; }
    .divider { stroke: #2b0b22; stroke-width: 1; }
  </style>
  <rect class="bg" x="0" y="0" width="1180" height="825" rx="0" ry="0"/>
  <rect class="card" x="28" y="20" width="1124" height="785" rx="8" ry="8"/>
  <rect class="titlebar" x="28" y="20" width="1124" height="32" rx="8" ry="8"/>
  <rect x="28" y="20" width="1124" height="32" fill="none" stroke="#2b0b22" stroke-width="1" rx="8" ry="8"/>
  <circle class="win-btn" cx="52" cy="36" r="3.2"/>
  <circle class="win-btn" cx="64" cy="36" r="3.2"/>
  <circle class="win-btn" cx="76" cy="36" r="3.2"/>
  <text x="590.0" y="39" class="title" text-anchor="middle">heinricitorgau@ubuntu: ~</text>
  <line x1="28" y1="52" x2="1152" y2="52" class="divider"/>
  <text x="40" y="82" class="prompt-user">heinricitorgau@ubuntu</text><text x="209" y="82" class="prompt-path">:~</text><text x="228" y="82" class="prompt-symbol">$</text><text x="241" y="82" class="prompt-cmd">cat profile.txt</text><text x="40" y="128" class="line">$ whoami</text><text x="40" y="151" class="line">KAO, EN-TSAI</text><text x="40" y="197" class="line">$ role</text><text x="40" y="220" class="line">Computer Science student</text><text x="40" y="266" class="line">$ focus</text><text x="40" y="289" class="line">Linux</text><text x="40" y="312" class="line">Reverse engineering</text><text x="40" y="335" class="line">Automation</text><text x="40" y="358" class="line">Data engineering</text><text x="40" y="381" class="line">AI / ML</text><text x="40" y="427" class="line">$ currently</text><text x="40" y="450" class="line">Studying computer science</text><text x="40" y="473" class="line">Learning Linux internals</text><text x="40" y="519" class="line">$ engineering_style</text><text x="40" y="542" class="line">Disciplined engineering</text><text x="40" y="588" class="line">$ projects</text><text x="40" y="611" class="line">Experimental-C2-Architecture-and-Cyber-Defense-Analysis</text><text x="40" y="634" class="line">Automated-University-Admission-Requirements-Analyzer</text><text x="40" y="657" class="line">Development-of-a-Dynamic-Identity-Hiding-System-Combining-Tor-and-SOCKS5-Proxy</text><text x="40" y="703" class="line">$ interest</text><text x="40" y="726" class="line">F1 enthusiast</text><text x="40" y="772" class="prompt-user">heinricitorgau@ubuntu</text><text x="209" y="772" class="prompt-path">:~</text><text x="228" y="772" class="prompt-symbol">$</text><rect x="241" y="761" width="8" height="14" class="cursor-block"/>
</svg>