<svg xmlns="http://www.w3.org/2000/svg" width="1240" height="1260" viewBox="0 0 1240 1260" role="img" aria-label="Engineer dashboard">
  <style>
    .bg { fill: #0d1117; }
    .card { fill: #300a24; stroke: #5e2750; stroke-width: 1; }
    .title { fill: #f6f5f4; font: 700 19px 'Ubuntu', 'Ubuntu Mono', Menlo, Consolas, monospace; }
    .path { fill: #d8cad2; font: 500 12px 'Ubuntu', 'Ubuntu Mono', Menlo, Consolas, monospace; }
    .prompt { fill: #8ae234; font: 18px 'Ubuntu Mono', Menlo, Consolas, monospace; white-space: pre; }
    .line { fill: #eeeeec; font: 18px 'Ubuntu Mono', Menlo, Consolas, monospace; white-space: pre; }
    .output { fill: #eeeeec; font: 18px 'Ubuntu Mono', Menlo, Consolas, monospace; white-space: pre; }
    .meta { fill: #c7c7c7; font: 17px 'Ubuntu Mono', Menlo, Consolas, monospace; white-space: pre; }
    .cursor { fill: #eeeeec; font: 18px 'Ubuntu Mono', Menlo, Consolas, monospace; white-space: pre; }
    .dot-red { fill: #ff6159; }
    .dot-yellow { fill: #ffbd2e; }
    .dot-green { fill: #28c840; }
    .divider { stroke: #5e2750; stroke-width: 1; }
  </style>
  <rect class="bg" x="0" y="0" width="1240" height="1260" rx="0" ry="0"/>
  <rect class="card" x="24" y="20" width="1192" height="1220" rx="14" ry="14"/>
  <rect x="24" y="20" width="1192" height="36" fill="#3c0f2f" rx="14" ry="14"/>
  <rect x="24" y="20" width="1192" height="36" fill="none" stroke="#5e2750" stroke-width="1" rx="14" ry="14"/>
  <circle class="dot-red" cx="52" cy="41" r="6"/>
  <circle class="dot-yellow" cx="74" cy="41" r="6"/>
  <circle class="dot-green" cx="96" cy="41" r="6"/>
  <text x="130" y="35" class="path">heinricitorgau@ubuntu: ~/profile.txt</text>
  <text x="130" y="52" class="title">Terminal</text>
  <line x1="24" y1="66" x2="1216" y2="66" class="divider"/>
  <text x="44" y="92" class="prompt">heinricitorgau@ubuntu:~$ ls</text><text x="44" y="120" class="output">dashboard.svg  profile.txt</text><text x="44" y="176" class="prompt">heinricitorgau@ubuntu:~$ cat profile.txt</text><text x="44" y="232" class="line">$ whoami</text><text x="44" y="260" class="line">KAO, EN-TSAI</text><text x="44" y="316" class="line">$ role</text><text x="44" y="344" class="line">Computer Science student</text><text x="44" y="400" class="line">$ focus</text><text x="44" y="428" class="line">Linux</text><text x="44" y="456" class="line">Reverse engineering</text><text x="44" y="484" class="line">Automation</text><text x="44" y="512" class="line">Data engineering</text><text x="44" y="540" class="line">AI / ML</text><text x="44" y="596" class="line">$ currently</text><text x="44" y="624" class="line">Studying computer science</text><text x="44" y="652" class="line">Learning Linux internals</text><text x="44" y="708" class="line">$ engineering_style</text><text x="44" y="736" class="line">Disciplined engineering</text><text x="44" y="792" class="line">$ projects</text><text x="44" y="820" class="line">Experimental-C2-Architecture-and-Cyber-Defense-Analysis</text><text x="44" y="848" class="line">Automated-University-Admission-Requirements-Analyzer</text><text x="44" y="876" class="line">Development-of-a-Dynamic-Identity-Hiding-System-Combining-Tor-and-SOCKS5-Proxy</text><text x="44" y="932" class="line">$ interest</text><text x="44" y="960" class="line">F1 enthusiast</text><text x="44" y="1016" class="prompt">heinricitorgau@ubuntu:~$ stat profile.txt</text><text x="44" y="1044" class="meta">  File: profile.txt</text><text x="44" y="1072" class="meta">  Size: 461 bytes</text><text x="44" y="1100" class="meta">  Type: regular file</text><text x="44" y="1128" class="meta">  Access: (0644/-rw-r--r--)</text><text x="44" y="1184" class="prompt">heinricitorgau@ubuntu:~$ _</text>
</svg>