<svg xmlns="http://www.w3.org/2000/svg" width="1100" height="1164" viewBox="0 0 1100 1164" role="img" aria-label="Engineer dashboard">
  <style>
    .bg { fill: #0d1117; }
    .card { fill: #0b1220; stroke: #30363d; stroke-width: 1; }
    .title { fill: #c9d1d9; font: 600 18px ui-monospace, SFMono-Regular, Menlo, Consolas, monospace; }
    .prompt { fill: #7ee787; font: 17px ui-monospace, SFMono-Regular, Menlo, Consolas, monospace; white-space: pre; }
    .line { fill: #c9d1d9; font: 17px ui-monospace, SFMono-Regular, Menlo, Consolas, monospace; white-space: pre; }
    .dot-red { fill: #ff5f57; }
    .dot-yellow { fill: #febc2e; }
    .dot-green { fill: #28c840; }
    .divider { stroke: #21262d; stroke-width: 1; }
  </style>
  <rect class="bg" x="0" y="0" width="1100" height="1164" rx="0" ry="0"/>
  <rect class="card" x="24" y="20" width="1052" height="1124" rx="18" ry="18"/>
  <circle class="dot-red" cx="52" cy="41" r="6"/>
  <circle class="dot-yellow" cx="74" cy="41" r="6"/>
  <circle class="dot-green" cx="96" cy="41" r="6"/>
  <text x="130" y="47" class="title">engineer-dashboard / profile.txt</text>
  <line x1="24" y1="62" x2="1076" y2="62" class="divider"/>
  <text x="42" y="66" class="prompt">heinricitorgau@dashboard:~$ cat profile.txt</text><text x="42" y="126" class="line">test@testdeMacBook-Air Desktop$ whoami</text><text x="42" y="156" class="line">KAO, EN-TSAI</text><text x="42" y="216" class="line">test@testdeMacBook-Air Desktop$ role</text><text x="42" y="246" class="line">Computer Science student</text><text x="42" y="306" class="line">test@testdeMacBook-Air Desktop$ focus</text><text x="42" y="336" class="line">Linux</text><text x="42" y="366" class="line">Reverse engineering</text><text x="42" y="396" class="line">Automation</text><text x="42" y="426" class="line">Data engineering</text><text x="42" y="456" class="line">AI / ML</text><text x="42" y="516" class="line">test@testdeMacBook-Air Desktop$ currently</text><text x="42" y="546" class="line">Studying computer science</text><text x="42" y="576" class="line">Learning Linux internals</text><text x="42" y="636" class="line">test@testdeMacBook-Air Desktop$ engineering_style</text><text x="42" y="666" class="line">Disciplined engineering</text><text x="42" y="726" class="line">test@testdeMacBook-Air Desktop$ projects</text><text x="42" y="756" class="line">Experimental-C2-Architecture-and-Cyber-Defense-Analysis</text><text x="42" y="786" class="line">Automated-University-Admission-Requirements-Analyzer</text><text x="42" y="816" class="line">Development-of-a-Dynamic-Identity-Hiding-System-Combining-Tor-and-SOCKS5-Proxy</text><text x="42" y="876" class="line">test@testdeMacBook-Air Desktop$ interest</text><text x="42" y="906" class="line">F1 enthusiast</text><text x="42" y="966" class="prompt">heinricitorgau@dashboard:~$ status</text><text x="42" y="996" class="line">dashboard_mode=engineer_terminal</text><text x="42" y="1026" class="line">source=profile.txt</text><text x="42" y="1056" class="line">render=svg</text><text x="42" y="1086" class="line">state=stable</text>
</svg>