<svg xmlns="http://www.w3.org/2000/svg" width="1000" height="1314" viewBox="0 0 1000 1314" role="img" aria-label="GitHub dashboard">
  <style>
    .bg { fill: #0d1117; }
    .border { fill: none; stroke: #30363d; stroke-width: 1; }
    .title { fill: #7ee787; font: 700 24px ui-monospace, SFMono-Regular, Menlo, Consolas, monospace; }
    .section { fill: #79c0ff; font: 700 19px ui-monospace, SFMono-Regular, Menlo, Consolas, monospace; }
    .line { fill: #c9d1d9; font: 18px ui-monospace, SFMono-Regular, Menlo, Consolas, monospace; white-space: pre; }
    .muted { fill: #8b949e; font: 16px ui-monospace, SFMono-Regular, Menlo, Consolas, monospace; }
  </style>
  <rect class="bg" x="0" y="0" width="1000" height="1314" rx="18" ry="18"/>
  <rect class="border" x="0.5" y="0.5" width="999" height="1313" rx="17.5" ry="17.5"/>
  <text x="36" y="42" class="title">heinricitorgau / dashboard</text><text x="36" y="70" class="muted">generated from profile.txt + GitHub API</text><text x="36" y="122" class="section">stats</text><text x="36" y="150" class="line">public_repos=7   fetched_repos=7   followers=5   following=6   total_stars=1</text><text x="36" y="202" class="section">whoami</text><text x="36" y="230" class="line">$ whoami</text><text x="36" y="258" class="line">KAO, EN-TSAI</text><text x="36" y="286" class="line"></text><text x="36" y="314" class="line">$ role</text><text x="36" y="342" class="line">Computer Science student</text><text x="36" y="370" class="line"></text><text x="36" y="398" class="line">$ focus</text><text x="36" y="426" class="line">Linux</text><text x="36" y="454" class="line">Reverse engineering</text><text x="36" y="482" class="line">Automation</text><text x="36" y="510" class="line">Data engineering</text><text x="36" y="538" class="line">AI / ML</text><text x="36" y="566" class="line"></text><text x="36" y="594" class="line">$ currently</text><text x="36" y="622" class="line">Studying computer science</text><text x="36" y="650" class="line">Learning Linux internals</text><text x="36" y="678" class="line"></text><text x="36" y="706" class="line">$ engineering_style</text><text x="36" y="734" class="line">Disciplined engineering</text><text x="36" y="762" class="line"></text><text x="36" y="790" class="line">$ projects</text><text x="36" y="818" class="line">Experimental-C2-Architecture-and-Cyber-Defense-Analysis</text><text x="36" y="846" class="line">Automated-University-Admission-Requirements-Analyzer</text><text x="36" y="874" class="line">Development-of-a-Dynamic-Identity-Hiding-System-Combining-Tor-and-SOCKS5-Proxy</text><text x="36" y="902" class="line"></text><text x="36" y="930" class="line">$ interest</text><text x="36" y="958" class="line">F1 enthusiast</text><text x="36" y="1010" class="section">recent repos</text><text x="36" y="1038" class="line">heinricitorgau  ★0  Unknown</text><text x="36" y="1066" class="line">Automated-University-Admission-Requirements-Analyzer  ★0  Python</text><text x="36" y="1094" class="line">Experimental-C2-Architecture-and-Cyber-Defense-Analysis  ★0  Python</text><text x="36" y="1146" class="section">recent activity</text><text x="36" y="1174" class="line">push 0 commit(s) -&gt; heinricitorgau/heinricitorgau</text><text x="36" y="1202" class="line">push 0 commit(s) -&gt; heinricitorgau/heinricitorgau</text><text x="36" y="1230" class="line">push 0 commit(s) -&gt; heinricitorgau/heinricitorgau</text><text x="36" y="1258" class="line">push 0 commit(s) -&gt; heinricitorgau/heinricitorgau</text>
</svg>