<svg xmlns="http://www.w3.org/2000/svg" width="1320" height="1438" viewBox="0 0 1320 1438" role="img" aria-label="Engineer dashboard">
  <style>
    .bg { fill: #0d1117; }
    .card { fill: #300a24; stroke: #4b1b3b; stroke-width: 1; }
    .titlebar { fill: #3a0f2d; }
    .title { fill: #f6f5f4; font: 500 14px 'Ubuntu', 'Ubuntu Mono', Menlo, Consolas, monospace; }
    .path { fill: #d8cad2; font: 500 10px 'Ubuntu', 'Ubuntu Mono', Menlo, Consolas, monospace; }
    .line { fill: #eeeeec; font: 16px 'Ubuntu Mono', Menlo, Consolas, monospace; white-space: pre; }
    .output { fill: #eeeeec; font: 16px 'Ubuntu Mono', Menlo, Consolas, monospace; white-space: pre; }
    .meta { fill: #c7c7c7; font: 16px 'Ubuntu Mono', Menlo, Consolas, monospace; white-space: pre; }
    .prompt-user { fill: #8ae234; font: 16px 'Ubuntu Mono', Menlo, Consolas, monospace; white-space: pre; }
    .prompt-path { fill: #729fcf; font: 16px 'Ubuntu Mono', Menlo, Consolas, monospace; white-space: pre; }
    .prompt-symbol { fill: #eeeeec; font: 16px 'Ubuntu Mono', Menlo, Consolas, monospace; white-space: pre; }
    .prompt-cmd { fill: #eeeeec; font: 16px 'Ubuntu Mono', Menlo, Consolas, monospace; white-space: pre; }
    .cursor-block { fill: #eeeeec; }
    .win-btn { fill: #7b516a; }
    .divider { stroke: #4b1b3b; stroke-width: 1; }
  </style>
  <rect class="bg" x="0" y="0" width="1320" height="1438" rx="0" ry="0"/>
  <rect class="card" x="24" y="20" width="1272" height="1398" rx="14" ry="14"/>
  <rect class="titlebar" x="24" y="20" width="1272" height="36" rx="14" ry="14"/>
  <rect x="24" y="20" width="1272" height="36" fill="none" stroke="#4b1b3b" stroke-width="1" rx="14" ry="14"/>
  <circle class="win-btn" cx="54" cy="38" r="4.5"/>
  <circle class="win-btn" cx="70" cy="38" r="4.5"/>
  <circle class="win-btn" cx="86" cy="38" r="4.5"/>
  <text x="660.0" y="42" class="title" text-anchor="middle">heinricitorgau@ubuntu: ~</text>
  <line x1="24" y1="56" x2="1296" y2="56" class="divider"/>
  <text x="40" y="94" class="prompt-user">heinricitorgau@ubuntu</text><text x="240" y="94" class="prompt-path">:~</text><text x="266" y="94" class="prompt-symbol">$</text><text x="284" y="94" class="prompt-cmd">ls</text><text x="40" y="120" class="output">dashboard.svg  profile.txt</text><text x="40" y="172" class="prompt-user">heinricitorgau@ubuntu</text><text x="240" y="172" class="prompt-path">:~</text><text x="266" y="172" class="prompt-symbol">$</text><text x="284" y="172" class="prompt-cmd">wc -l profile.txt</text><text x="40" y="198" class="output">27 profile.txt</text><text x="40" y="250" class="prompt-user">heinricitorgau@ubuntu</text><text x="240" y="250" class="prompt-path">:~</text><text x="266" y="250" class="prompt-symbol">$</text><text x="284" y="250" class="prompt-cmd">wc -w profile.txt</text><text x="40" y="276" class="output">41 profile.txt</text><text x="40" y="328" class="prompt-user">heinricitorgau@ubuntu</text><text x="240" y="328" class="prompt-path">:~</text><text x="266" y="328" class="prompt-symbol">$</text><text x="284" y="328" class="prompt-cmd">cat profile.txt</text><text x="40" y="380" class="line">$ whoami</text><text x="40" y="406" class="line">KAO, EN-TSAI</text><text x="40" y="458" class="line">$ role</text><text x="40" y="484" class="line">Computer Science student</text><text x="40" y="536" class="line">$ focus</text><text x="40" y="562" class="line">Linux</text><text x="40" y="588" class="line">Reverse engineering</text><text x="40" y="614" class="line">Automation</text><text x="40" y="640" class="line">Data engineering</text><text x="40" y="666" class="line">AI / ML</text><text x="40" y="718" class="line">$ currently</text><text x="40" y="744" class="line">Studying computer science</text><text x="40" y="770" class="line">Learning Linux internals</text><text x="40" y="822" class="line">$ engineering_style</text><text x="40" y="848" class="line">Disciplined engineering</text><text x="40" y="900" class="line">$ projects</text><text x="40" y="926" class="line">Experimental-C2-Architecture-and-Cyber-Defense-Analysis</text><text x="40" y="952" class="line">Automated-University-Admission-Requirements-Analyzer</text><text x="40" y="978" class="line">Development-of-a-Dynamic-Identity-Hiding-System-Combining-Tor-and-SOCKS5-Proxy</text><text x="40" y="1030" class="line">$ interest</text><text x="40" y="1056" class="line">F1 enthusiast</text><text x="40" y="1108" class="prompt-user">heinricitorgau@ubuntu</text><text x="240" y="1108" class="prompt-path">:~</text><text x="266" y="1108" class="prompt-symbol">$</text><text x="284" y="1108" class="prompt-cmd">stat profile.txt</text><text x="40" y="1134" class="output">  File: profile.txt</text><text x="40" y="1160" class="meta">  Size: 461        Blocks: 8          IO Block: 4096   regular file</text><text x="40" y="1186" class="meta">Device: 802h/2050d      Inode: 123456      Links: 1</text><text x="40" y="1212" class="meta">Access: (0644/-rw-r--r--)  Uid: ( 1000/heinricitorgau)   Gid: ( 1000/heinricitorgau)</text><text x="40" y="1238" class="meta">Access: 2026-03-09 01:30:00.000000000 +0800</text><text x="40" y="1264" class="meta">Modify: 2026-03-09 01:30:00.000000000 +0800</text><text x="40" y="1290" class="meta">Change: 2026-03-09 01:30:00.000000000 +0800</text><text x="40" y="1316" class="meta"> Birth: -</text><text x="40" y="1368" class="prompt-user">heinricitorgau@ubuntu</text><text x="240" y="1368" class="prompt-path">:~</text><text x="266" y="1368" class="prompt-symbol">$</text><text x="284" y="1368" class="prompt-cmd"></text>
</svg>