<svg xmlns="http://www.w3.org/2000/svg" width="1220" height="1204" viewBox="0 0 1220 1204" role="img" aria-label="Engineer dashboard">
  <style>
    .bg { fill: #0d1117; }
    .card { fill: #300a24; stroke: #4a2140; stroke-width: 1; }
    .title { fill: #f6f5f4; font: 700 18px ui-monospace, 'Ubuntu Mono', Menlo, Consolas, monospace; }
    .path { fill: #c0b7bc; font: 500 14px ui-monospace, 'Ubuntu Mono', Menlo, Consolas, monospace; }
    .prompt { fill: #8ae234; font: 18px ui-monospace, 'Ubuntu Mono', Menlo, Consolas, monospace; white-space: pre; }
    .line { fill: #eeeeec; font: 18px ui-monospace, 'Ubuntu Mono', Menlo, Consolas, monospace; white-space: pre; }
    .dot-red { fill: #ff6159; }
    .dot-yellow { fill: #ffbd2e; }
    .dot-green { fill: #28c840; }
    .divider { stroke: #4a2140; stroke-width: 1; }
  </style>
  <rect class="bg" x="0" y="0" width="1220" height="1204" rx="0" ry="0"/>
  <rect class="card" x="24" y="20" width="1172" height="1164" rx="20" ry="20"/>
  <circle class="dot-red" cx="52" cy="41" r="6"/>
  <circle class="dot-yellow" cx="74" cy="41" r="6"/>
  <circle class="dot-green" cx="96" cy="41" r="6"/>
  <text x="130" y="36" class="path">heinricitorgau@testdeMacBook-Air: ~/profile.txt</text>
  <text x="130" y="54" class="title">Terminal</text>
  <line x1="24" y1="66" x2="1196" y2="66" class="divider"/>
  <text x="48" y="100" class="prompt">heinricitorgau@testdeMacBook-Air:~$ cat profile.txt</text><text x="48" y="160" class="line">$ whoami</text><text x="48" y="190" class="line">KAO, EN-TSAI</text><text x="48" y="250" class="line">$ role</text><text x="48" y="280" class="line">Computer Science student</text><text x="48" y="340" class="line">$ focus</text><text x="48" y="370" class="line">Linux</text><text x="48" y="400" class="line">Reverse engineering</text><text x="48" y="430" class="line">Automation</text><text x="48" y="460" class="line">Data engineering</text><text x="48" y="490" class="line">AI / ML</text><text x="48" y="550" class="line">$ currently</text><text x="48" y="580" class="line">Studying computer science</text><text x="48" y="610" class="line">Learning Linux internals</text><text x="48" y="670" class="line">$ engineering_style</text><text x="48" y="700" class="line">Disciplined engineering</text><text x="48" y="760" class="line">$ projects</text><text x="48" y="790" class="line">Experimental-C2-Architecture-and-Cyber-Defense-Analysis</text><text x="48" y="820" class="line">Automated-University-Admission-Requirements-Analyzer</text><text x="48" y="850" class="line">Development-of-a-Dynamic-Identity-Hiding-System-Combining-Tor-and-SOCKS5-Proxy</text><text x="48" y="910" class="line">$ interest</text><text x="48" y="940" class="line">F1 enthusiast</text><text x="48" y="1000" class="prompt">heinricitorgau@testdeMacBook-Air:~$ system status</text><text x="48" y="1030" class="line">dashboard_mode ........ engineer_terminal</text><text x="48" y="1060" class="line">input_source .......... profile.txt</text><text x="48" y="1090" class="line">render_target ......... dashboard.svg</text><text x="48" y="1120" class="line">pipeline_state ........ stable</text>
</svg>